<svg width="48" height="54" viewBox="0 0 48 54" fill="none" xmlns="http://www.w3.org/2000/svg">
<path d="M40 24C40 15.178 32.822 8 24 8C15.178 8 8 15.178 8 24C8 24.413 8 25.728 8 26C8 32.023 10.783 35.066 13.021 37.512C14.685 39.332 16 40.77 16 43C16 43.023 16.011 43.042 16.013 43.064C16.014 43.084 16.005 43.103 16.008 43.124L16.57 47.625C16.882 50.119 19.013 52 21.526 52H26.473C28.987 52 31.118 50.119 31.429 47.625L31.991 43.124C31.994 43.104 31.984 43.085 31.986 43.064C31.989 43.042 32 43.023 32 43C32 40.673 33.462 38.964 35.155 36.985C37.427 34.331 40 31.324 40 26C40 25.706 40 24.39 40 24Z" fill="black"/>
<path d="M17 41L17.563 45.501C17.813 47.5 19.512 49 21.526 49H26.474C28.488 49 30.188 47.5 30.437 45.501L31 41H17Z" fill="#7E7E7E"/>
<path d="M26.4741 50H21.5271C19.0131 50 16.8821 48.119 16.5711 45.625L16.0091 41.124C15.9731 40.84 16.0621 40.553 16.2511 40.338C16.4401 40.123 16.7131 40 17.0001 40H31.0001C31.2871 40 31.5601 40.123 31.7501 40.338C31.9391 40.553 32.0281 40.84 31.9921 41.124L31.4301 45.625C31.1181 48.119 28.9871 50 26.4741 50ZM18.1331 42L18.5551 45.377C18.7421 46.872 20.0201 48 21.5261 48H26.4731C27.9801 48 29.2571 46.872 29.4451 45.377L29.8671 42H18.1331Z" fill="black"/>
<path d="M39 24C39 33 31 35 31 41H17C17 35 9 34 9 24C9 15.716 15.716 9 24 9C32.284 9 39 15.716 39 24Z" fill="#FF0000"/>
<path d="M31 42H17C16.447 42 16 41.553 16 41C16 38.77 14.685 37.332 13.021 35.512C10.783 33.066 8 30.023 8 24C8 15.178 15.178 8 24 8C32.822 8 40 15.178 40 24C40 29.324 37.427 32.331 35.155 34.985C33.462 36.964 32 38.673 32 41C32 41.553 31.553 42 31 42ZM17.935 40H30.065C30.4 37.467 31.977 35.623 33.636 33.685C35.781 31.178 38 28.585 38 24C38 16.28 31.72 10 24 10C16.28 10 10 16.28 10 24C10 29.247 12.285 31.745 14.496 34.162C16.09 35.904 17.604 37.561 17.935 40Z" fill="black"/>
<path d="M24 14C18.486 14 14 18.486 14 24C14 24.553 14.447 25 15 25C15.553 25 16 24.553 16 24C16 19.589 19.589 16 24 16C24.553 16 25 15.553 25 15C25 14.447 24.553 14 24 14Z" fill="black"/>
<path d="M47 23H43C42.447 23 42 23.447 42 24C42 24.553 42.447 25 43 25H47C47.553 25 48 24.553 48 24C48 23.447 47.553 23 47 23Z" fill="black"/>
<path d="M40.0011 13C40.1911 13 40.3841 12.945 40.5551 12.832L43.5551 10.832C44.0151 10.525 44.1391 9.90499 43.8321 9.44499C43.5251 8.98599 42.9051 8.86199 42.4451 9.16799L39.4451 11.168C38.9851 11.475 38.8611 12.095 39.1681 12.555C39.3601 12.844 39.6781 13 40.0011 13Z" fill="black"/>
<path d="M40.5551 35.168C40.0941 34.862 39.4741 34.985 39.1681 35.445C38.8611 35.905 38.9851 36.525 39.4451 36.832L42.4451 38.832C42.6161 38.945 42.8091 39 42.9991 39C43.3221 39 43.6401 38.844 43.8321 38.555C44.1391 38.095 44.0151 37.475 43.5551 37.168L40.5551 35.168Z" fill="black"/>
<path d="M6 24C6 23.447 5.553 23 5 23H1C0.447 23 0 23.447 0 24C0 24.553 0.447 25 1 25H5C5.553 25 6 24.553 6 24Z" fill="black"/>
<path d="M7.44496 35.168L4.44496 37.168C3.98496 37.475 3.86096 38.095 4.16796 38.555C4.35996 38.844 4.67796 39 5.00096 39C5.19096 39 5.38396 38.945 5.55496 38.832L8.55496 36.832C9.01496 36.525 9.13896 35.905 8.83196 35.445C8.52596 34.985 7.90596 34.862 7.44496 35.168Z" fill="black"/>
<path d="M5.55496 9.16799C5.09296 8.86199 4.47396 8.98599 4.16796 9.44499C3.86096 9.90499 3.98496 10.525 4.44496 10.832L7.44496 12.832C7.61596 12.945 7.80896 13 7.99896 13C8.32196 13 8.63996 12.844 8.83196 12.555C9.13896 12.095 9.01496 11.475 8.55496 11.168L5.55496 9.16799Z" fill="black"/>
<path d="M30 44H18V46H30V44Z" fill="black"/>
<path d="M30.2711 0.967124L29.2542 4.83571C29.1136 5.37054 29.4323 5.91649 29.9671 6.05708C30.502 6.19766 31.0479 5.87898 31.1885 5.34415L32.2054 1.47556C32.346 0.940732 32.0273 0.394781 31.4925 0.254197C30.9576 0.113614 30.4117 0.432292 30.2711 0.967124Z" fill="black"/>
<path d="M19.1231 5.19405C19.1714 5.0103 19.1673 4.80965 19.1014 4.61554L17.9298 1.20567C17.7498 0.682733 17.1817 0.40519 16.6588 0.585163C16.1368 0.76539 15.8593 1.3335 16.0383 1.85618L17.2099 5.26606C17.3899 5.78899 17.958 6.06653 18.4809 5.88656C18.8093 5.77434 19.041 5.50644 19.1231 5.19405Z" fill="black"/>
</svg>
