<svg width="48" height="54" viewBox="0 0 48 54" fill="none" xmlns="http://www.w3.org/2000/svg">
<path d="M40 24C40 15.178 32.822 8 24 8C15.178 8 8 15.178 8 24C8 24.413 8 25.728 8 26C8 32.023 10.783 35.066 13.021 37.512C14.685 39.332 16 40.77 16 43C16 43.023 16.011 43.042 16.013 43.064C16.014 43.084 16.005 43.103 16.008 43.124L16.57 47.625C16.882 50.119 19.013 52 21.526 52H26.473C28.987 52 31.118 50.119 31.429 47.625L31.991 43.124C31.994 43.104 31.984 43.085 31.986 43.064C31.989 43.042 32 43.023 32 43C32 40.673 33.462 38.964 35.155 36.985C37.427 34.331 40 31.324 40 26C40 25.706 40 24.39 40 24Z" fill="black"/>
<path d="M17 41L17.563 45.501C17.813 47.5 19.512 49 21.526 49H26.474C28.488 49 30.188 47.5 30.437 45.501L31 41H17Z" fill="white"/>
<path d="M26.474 50H21.527C19.013 50 16.8819 48.119 16.5709 45.625L16.009 41.124C15.973 40.84 16.0619 40.553 16.2509 40.338C16.4399 40.123 16.713 40 17 40H31C31.287 40 31.56 40.123 31.75 40.338C31.939 40.553 32.028 40.84 31.992 41.124L31.43 45.625C31.118 48.119 28.987 50 26.474 50ZM18.1329 42L18.555 45.377C18.742 46.872 20.0199 48 21.5259 48H26.4729C27.9799 48 29.257 46.872 29.445 45.377L29.867 42H18.1329Z" fill="black"/>
<path d="M39 24C39 33 31 35 31 41H17C17 35 9 34 9 24C9 15.716 15.716 9 24 9C32.284 9 39 15.716 39 24Z" fill="white"/>
<path d="M31 42H17C16.447 42 16 41.553 16 41C16 38.77 14.685 37.332 13.021 35.512C10.783 33.066 8 30.023 8 24C8 15.178 15.178 8 24 8C32.822 8 40 15.178 40 24C40 29.324 37.427 32.331 35.155 34.985C33.462 36.964 32 38.673 32 41C32 41.553 31.553 42 31 42ZM17.935 40H30.065C30.4 37.467 31.977 35.623 33.636 33.685C35.781 31.178 38 28.585 38 24C38 16.28 31.72 10 24 10C16.28 10 10 16.28 10 24C10 29.247 12.285 31.745 14.496 34.162C16.09 35.904 17.604 37.561 17.935 40Z" fill="black"/>
<path d="M24 14C18.486 14 14 18.486 14 24C14 24.553 14.447 25 15 25C15.553 25 16 24.553 16 24C16 19.589 19.589 16 24 16C24.553 16 25 15.553 25 15C25 14.447 24.553 14 24 14Z" fill="black"/>
<path d="M47 23H43C42.447 23 42 23.447 42 24C42 24.553 42.447 25 43 25H47C47.553 25 48 24.553 48 24C48 23.447 47.553 23 47 23Z" fill="black"/>
<path d="M40.001 13C40.191 13 40.384 12.945 40.555 12.832L43.555 10.832C44.015 10.525 44.139 9.90499 43.832 9.44499C43.525 8.98599 42.905 8.86199 42.445 9.16799L39.445 11.168C38.985 11.475 38.861 12.095 39.168 12.555C39.36 12.844 39.678 13 40.001 13Z" fill="black"/>
<path d="M40.555 35.168C40.094 34.862 39.474 34.985 39.168 35.445C38.861 35.905 38.985 36.525 39.445 36.832L42.445 38.832C42.616 38.945 42.809 39 42.999 39C43.322 39 43.64 38.844 43.832 38.555C44.139 38.095 44.015 37.475 43.555 37.168L40.555 35.168Z" fill="black"/>
<path d="M6 24C6 23.447 5.553 23 5 23H1C0.447 23 0 23.447 0 24C0 24.553 0.447 25 1 25H5C5.553 25 6 24.553 6 24Z" fill="black"/>
<path d="M7.44508 35.168L4.44508 37.168C3.98508 37.475 3.86108 38.095 4.16808 38.555C4.36008 38.844 4.67808 39 5.00108 39C5.19108 39 5.38408 38.945 5.55508 38.832L8.55508 36.832C9.01508 36.525 9.13908 35.905 8.83208 35.445C8.52608 34.985 7.90608 34.862 7.44508 35.168Z" fill="black"/>
<path d="M5.55508 9.16799C5.09308 8.86199 4.47408 8.98599 4.16808 9.44499C3.86108 9.90499 3.98508 10.525 4.44508 10.832L7.44508 12.832C7.61608 12.945 7.80908 13 7.99908 13C8.32208 13 8.64008 12.844 8.83208 12.555C9.13908 12.095 9.01508 11.475 8.55508 11.168L5.55508 9.16799Z" fill="black"/>
<path d="M30 44H18V46H30V44Z" fill="black"/>
<path d="M30.2711 0.967139L29.2542 4.83573C29.1136 5.37056 29.4323 5.91651 29.9671 6.05709C30.502 6.19768 31.0479 5.879 31.1885 5.34416L32.2054 1.47558C32.346 0.940747 32.0273 0.394796 31.4925 0.254213C30.9576 0.113629 30.4117 0.432307 30.2711 0.967139Z" fill="black"/>
<path d="M19.1231 5.19404C19.1714 5.01028 19.1673 4.80964 19.1014 4.61553L17.9298 1.20565C17.7498 0.682717 17.1817 0.405174 16.6588 0.585147C16.1368 0.765375 15.8593 1.33348 16.0383 1.85616L17.2099 5.26604C17.3899 5.78897 17.958 6.06652 18.4809 5.88654C18.8093 5.77432 19.041 5.50643 19.1231 5.19404Z" fill="black"/>
</svg>
